<?xml version="1.0" standalone="no"?>
<!DOCTYPE svg PUBLIC "-//W3C//DTD SVG 20010904//EN"
 "http://www.w3.org/TR/2001/REC-SVG-20010904/DTD/svg10.dtd">
<svg version="1.0" xmlns="http://www.w3.org/2000/svg"
 width="245.000000pt" height="245.000000pt" viewBox="0 0 245.000000 245.000000"
 preserveAspectRatio="xMidYMid meet">
<metadata>
Created by potrace 1.11, written by Peter Selinger 2001-2013
</metadata>
<g transform="translate(0.000000,245.000000) scale(0.100000,-0.100000)"
fill="#000000" stroke="none">
<path d="M1045 1832 c-62 -89 -251 -272 -325 -315 -141 -82 -266 -91 -385 -30
-87 46 -173 141 -239 266 l-35 67 -12 -42 c-47 -177 -57 -355 -28 -498 57
-276 235 -490 539 -646 14 -7 57 -25 95 -39 l70 -26 -52 52 c-29 29 -53 56
-53 61 0 8 33 4 70 -9 33 -11 120 -18 225 -18 121 0 169 6 262 30 74 19 84 21
188 42 76 14 211 14 273 -1 37 -8 108 -53 143 -89 l31 -32 -6 50 c-3 28 -19
76 -35 107 l-29 57 31 10 c112 37 266 33 369 -10 102 -43 233 -148 276 -221
20 -34 34 -36 28 -6 -3 13 -8 52 -11 88 -3 36 -8 72 -10 80 -2 8 -6 31 -9 50
-52 328 -227 594 -501 756 -102 60 -173 87 -317 120 -13 3 -77 7 -143 9 -132
3 -229 -11 -350 -49 -67 -21 -76 -22 -71 -8 35 109 67 253 55 252 -2 -1 -22
-27 -44 -58z"/>
</g>
</svg>
