<?xml version="1.0" encoding="utf-8"?>
<!-- Generator: Adobe Illustrator 25.2.1, SVG Export Plug-In . SVG Version: 6.00 Build 0)  -->
<svg version="1.1" id="Warstwa_1" xmlns="http://www.w3.org/2000/svg" xmlns:xlink="http://www.w3.org/1999/xlink" x="0px" y="0px"
	 viewBox="0 0 595.3 373.2" style="enable-background:new 0 0 595.3 373.2;" xml:space="preserve">
<style type="text/css">
	.st0{fill:#A15151;}
	.st1{fill:#202020;}
</style>
<path class="st0" d="M582.9,186.6c0,51.5-20.9,98.1-54.7,131.9s-80.4,54.7-131.9,54.7H0V0h396.3C499.3,0,582.9,83.5,582.9,186.6z"/>
<polygon class="st1" points="408.9,115.3 395.1,115.3 145.1,115.3 145.1,127.4 388.3,127.4 402.2,127.4 "/>
<polygon class="st1" points="195.8,268.1 181.4,268.1 180.2,264.4 119.6,81.6 115.6,69.4 130,69.4 132.7,77.7 191.8,256 "/>
<polygon class="st1" points="354.3,213.8 346.5,225.9 176.3,225.9 176.3,213.8 "/>
<polygon class="st1" points="408.9,115.3 402.2,127.4 354.3,213.8 347.5,225.9 333.6,225.9 340.4,213.8 388.3,127.4 395.1,115.3 "/>
<rect x="180.2" y="256" class="st1" width="130.8" height="12.1"/>
<polygon class="st1" points="132.7,79.8 132.7,84.8 84.3,84.8 84.3,69.4 130,69.4 "/>
<path class="st1" d="M185.4,299.9c-12.1,0-22-9.9-22-22s9.9-22,22-22s22,9.9,22,22S197.6,299.9,185.4,299.9z M185.4,269.4
	c-4.7,0-8.5,3.8-8.5,8.5s3.8,8.5,8.5,8.5s8.5-3.8,8.5-8.5S190.1,269.4,185.4,269.4z"/>
<path class="st1" d="M310.1,299.9c-12.1,0-22-9.9-22-22s9.9-22,22-22c12.1,0,22,9.9,22,22S322.3,299.9,310.1,299.9z M310.1,269.4
	c-4.7,0-8.5,3.8-8.5,8.5s3.8,8.5,8.5,8.5s8.5-3.8,8.5-8.5S314.8,269.4,310.1,269.4z"/>
<polygon class="st1" points="388.3,149.5 375.8,149.5 152,149.5 152,161.6 369.8,161.6 382.2,161.6 "/>
<polygon class="st1" points="363.6,181.6 353,181.6 163.7,181.6 163.7,193.8 348,193.8 358.5,193.8 "/>
<rect x="140.6" y="164.4" transform="matrix(-1.836970e-16 1 -1 -1.836970e-16 363.0048 -22.1092)" class="st1" width="103.8" height="12.1"/>
<rect x="179.8" y="164.6" transform="matrix(-1.836970e-16 1 -1 -1.836970e-16 402.3785 -61.1412)" class="st1" width="103.8" height="12.1"/>
<rect x="222" y="164.4" transform="matrix(-1.836970e-16 1 -1 -1.836970e-16 444.3768 -103.4813)" class="st1" width="103.8" height="12.1"/>
<rect x="262.1" y="164.6" transform="matrix(-1.836970e-16 1 -1 -1.836970e-16 484.6307 -143.3934)" class="st1" width="103.8" height="12.1"/>
<rect x="308.7" y="156.1" transform="matrix(-1.836970e-16 1 -1 -1.836970e-16 514.2866 -189.9733)" class="st1" width="86.9" height="12.1"/>
</svg>
