<svg xmlns="http://www.w3.org/2000/svg" viewBox="0 0 46.4 46.4"><defs><style>.cls-1{fill:#a15050;}</style></defs><g id="Warstwa_2" data-name="Warstwa 2"><g id="Warstwa_1-2" data-name="Warstwa 1"><path class="cls-1" d="M20.84,23.14a2.76,2.76,0,0,1-2.72,3,2.94,2.94,0,0,1-2.64-3,2.86,2.86,0,0,1,2.7-2.89A2.72,2.72,0,0,1,20.84,23.14Z"/><path class="cls-1" d="M30.62,23.28a2.68,2.68,0,1,1-5.34-.1,2.69,2.69,0,1,1,5.34.1Z"/><path class="cls-1" d="M37.05.32A11.89,11.89,0,0,0,34.3,0H12.11A12,12,0,0,0,9.35.32,12.14,12.14,0,0,0,0,12.11V34.3A12.1,12.1,0,0,0,11.86,46.39H34.61l.33,0a12,12,0,0,0,3.12-.57A12.16,12.16,0,0,0,46.4,34.3V12.11A12.14,12.14,0,0,0,37.05.32ZM38.1,31.76a10.76,10.76,0,0,1-6.85,3.1c-.52,0-2.21-1.5-2.17-2s.38-.43.7-.52a5.33,5.33,0,0,0,3-2c-6.28,3-12.54,3.21-18.83,0,.79,1.37,2.2,1.69,3.37,2.36-1.46,2.38-1.65,2.48-4.27,1.76a11.39,11.39,0,0,1-2.29-.88c-2.81-1.44-3.43-2.61-3-5.74a43.59,43.59,0,0,1,2.59-10.1,6.44,6.44,0,0,1,3.85-3.92,10.94,10.94,0,0,1,4.74-1c-1.55.92-3.37,1.24-4.73,2.52a26.38,26.38,0,0,1,17-.28c-1.1-1.07-2.57-1.3-4-2a1.94,1.94,0,0,1,1.74-.2c3.88.7,6.69,2.52,7.8,6.62a44.91,44.91,0,0,1,2,10.38A2.47,2.47,0,0,1,38.1,31.76Z"/></g></g></svg>