<svg xmlns="http://www.w3.org/2000/svg" viewBox="0 0 47.49 46.4"><defs><style>.cls-1{fill:#a15050;}</style></defs><g id="Warstwa_2" data-name="Warstwa 2"><g id="Warstwa_1-2" data-name="Warstwa 1"><polygon class="cls-1" points="0 24.33 0 24.33 0 24.33 0 24.33"/><polygon class="cls-1" points="0 24.34 0 24.33 0 24.33 0 24.33 0 24.34"/><polygon class="cls-1" points="0 24.33 0 24.34 0 24.33 0 24.33"/><path class="cls-1" d="M0,24.35H0Z"/><path class="cls-1" d="M5,22.33H5s0,0,0,0Z"/><path class="cls-1" d="M9.5,22.07h0v0h0S9.5,22.06,9.5,22.07Z"/><path class="cls-1" d="M13.67,22.11Z"/><path class="cls-1" d="M13.67,22.11Z"/><path class="cls-1" d="M14.53,22.38l0,0h0A0,0,0,0,0,14.53,22.38Z"/><path class="cls-1" d="M5,23.18s0,0,0,0H5S5,23.2,5,23.18Z"/><path class="cls-1" d="M9.49,23.19s0,0,0,0h0v0Z"/><path class="cls-1" d="M47.49,12.11V34.3a12.12,12.12,0,0,1-11.8,12.09h-5.1c-.46,0-.6-.11-.6-.58Q30,39,30,32.11c0-.4.1-.55.52-.54,1.43,0,2.86,0,4.3,0,.84,0,1.13-.24,1.23-1.09.17-1.41.34-2.83.5-4.25A1,1,0,0,0,35.48,25c-1.64,0-3.29,0-4.92,0-.44,0-.59-.1-.57-.56,0-1.24,0-2.48,0-3.72,0-1.82.76-2.61,2.58-2.72.87-.05,1.72,0,2.59,0s1.17-.29,1.18-1.17c0-1.22,0-2.45,0-3.67,0-.51-.22-.91-.74-.92a34.12,34.12,0,0,0-5.54.08c-4,.61-6.3,3.29-6.48,7.35-.07,1.59,0,3.2,0,4.8,0,.44-.1.58-.56.57-1,0-2,0-3,0-.83,0-1.17.32-1.17,1.14,0,1.5,0,3,.05,4.49,0,.59.34.9,1,.91,1.09,0,2.19,0,3.29,0,.34,0,.46.08.46.46q0,6.94,0,13.9c0,.34-.08.47-.45.47H13A12.1,12.1,0,0,1,1.08,34.3V12.11A12.15,12.15,0,0,1,13.19,0H35.38A12.15,12.15,0,0,1,47.49,12.11Z"/></g></g></svg>