<svg xmlns="http://www.w3.org/2000/svg" viewBox="0 0 46.73 46.4"><defs><style>.cls-1{fill:#a15050;}</style></defs><g id="Warstwa_2" data-name="Warstwa 2"><g id="Warstwa_1-2" data-name="Warstwa 1"><path class="cls-1" d="M15.8,23.07h0v0h0S15.8,23.07,15.8,23.07Zm0,0h0v0h0S15.8,23.07,15.8,23.07Zm0,0h0v0h0S15.8,23.07,15.8,23.07Zm0,0h0v0h0S15.8,23.07,15.8,23.07Zm0,0h0v0h0S15.8,23.07,15.8,23.07Zm0,0h0v0h0S15.8,23.07,15.8,23.07Zm0,0h0v0h0S15.8,23.07,15.8,23.07Zm0,0h0v0h0S15.8,23.07,15.8,23.07Zm0,0h0v0h0S15.8,23.07,15.8,23.07Zm0,0h0v0h0S15.8,23.07,15.8,23.07Zm0,0h0v0h0S15.8,23.07,15.8,23.07Zm0,0h0v0h0S15.8,23.07,15.8,23.07Zm0,0h0v0h0S15.8,23.07,15.8,23.07Zm0,0h0v0h0S15.8,23.07,15.8,23.07Zm0,0h0v0h0S15.8,23.07,15.8,23.07Zm0,0h0v0h0S15.8,23.07,15.8,23.07ZM34.63,0H12.44A12.15,12.15,0,0,0,.33,12.11V34.3A12.16,12.16,0,0,0,11.75,46.39H34.63a12.14,12.14,0,0,0,12.1-12.1V12.11A12.14,12.14,0,0,0,34.63,0ZM21.51,43.35q-4.16,0-8.29,0a11.43,11.43,0,0,1-4-.63A8.35,8.35,0,0,1,4.73,39a9.15,9.15,0,0,1-1.14-3.74,28.27,28.27,0,0,1-.13-3.32V23.47c0-3,0-6.06,0-9.1a20.82,20.82,0,0,1,.25-3.94,8.4,8.4,0,0,1,5-6.38,9.78,9.78,0,0,1,3.33-.75c1.35-.1,2.72-.09,4.07-.09H32.39c.7,0,1.4,0,2.1.07a11.82,11.82,0,0,1,3.29.56,8.27,8.27,0,0,1,4.88,4.43,9.24,9.24,0,0,1,.82,3.1,19.83,19.83,0,0,1,.09,2.31v20.2a10.37,10.37,0,0,1-1,4.75A8.46,8.46,0,0,1,39.45,42a8.12,8.12,0,0,1-1.82.84.4.4,0,0,1-.22,0s0,0,0,0l0,0a10,10,0,0,1-2.43.41C30.46,43.46,26,43.32,21.51,43.35ZM15.78,23.07v0h0s0,0,0,0Zm0,0h0v0h0S15.8,23.07,15.8,23.07Zm0,0h0v0h0S15.8,23.07,15.8,23.07Zm0,0h0v0h0S15.8,23.07,15.8,23.07Zm0,0h0v0h0S15.8,23.07,15.8,23.07Zm0,0h0v0h0S15.8,23.07,15.8,23.07Zm0,0h0v0h0S15.8,23.07,15.8,23.07Zm0,0h0v0h0S15.8,23.07,15.8,23.07Zm0,0h0v0h0S15.8,23.07,15.8,23.07Zm0,0h0v0h0S15.8,23.07,15.8,23.07Zm0,0h0v0h0S15.8,23.07,15.8,23.07Z"/><path class="cls-1" d="M19.49,26.18a5,5,0,0,1,1.23-7.11,5,5,0,0,1,7.71,3.45A4.75,4.75,0,0,1,28,25.36,4.86,4.86,0,0,1,25,28,4.94,4.94,0,0,1,19.49,26.18Z"/><path class="cls-1" d="M34.29,0H12.1A12.14,12.14,0,0,0,0,12.11V34.3A12,12,0,0,0,2,41a12.1,12.1,0,0,0,9.72,5.4H34.61A12.12,12.12,0,0,0,46.4,34.3V12.11A12.15,12.15,0,0,0,34.29,0Zm4.09,26.33c0,1.37,0,2.73-.15,4.09a9.26,9.26,0,0,1-.2,1.4,8.66,8.66,0,0,1-1.86,3.58,7.9,7.9,0,0,1-3.68,2.27A12.18,12.18,0,0,1,31,38a32.94,32.94,0,0,1-4.09.19c-2.83,0-5.68,0-8.52,0a16.44,16.44,0,0,1-3.83-.45c-.34-.09-.66-.25-1-.37A7,7,0,0,1,11.39,36a7.65,7.65,0,0,1-2.15-3.31,13.43,13.43,0,0,1-.59-3.94c-.05-1.06,0-2.11-.05-3.16V22.3c0-1.29,0-2.59,0-3.88A16.56,16.56,0,0,1,9,14.91a7.7,7.7,0,0,1,6-6.13,15.43,15.43,0,0,1,3.33-.34c3.37-.08,6.73-.07,10.1,0A15.89,15.89,0,0,1,32,8.78,7.67,7.67,0,0,1,36.84,12a8.26,8.26,0,0,1,1.33,3.71,36.67,36.67,0,0,1,.21,3.78C38.42,21.78,38.4,24.06,38.38,26.33ZM34.72,13.66a5,5,0,0,0-3.21-2.26,15.14,15.14,0,0,0-3-.3C27.12,11,25.71,11,24.31,11c-2.58,0-5.17,0-7.75.18a6.09,6.09,0,0,0-2.67.82,5.12,5.12,0,0,0-2.37,3.65,24.44,24.44,0,0,0-.24,3.41c0,1.41,0,2.82,0,4.21v.58s0,0,0,.05c0,1.82,0,3.65.1,5.48a9,9,0,0,0,.26,1.9A5,5,0,0,0,14.4,34.8a8.41,8.41,0,0,0,3.24.65c1.12,0,2.25.08,3.37.08,3,0,6,.08,9-.13a6.5,6.5,0,0,0,3.06-.89A4.74,4.74,0,0,0,35,32.37l.2-.45A10.33,10.33,0,0,0,35.65,29c0-.63.06-1.28.06-1.89,0-2.22,0-4.41,0-6.61a39.78,39.78,0,0,0-.17-4.23A6,6,0,0,0,34.72,13.66ZM29.88,27.48l-.11.18a8,8,0,0,1-2.29,2.15,7.53,7.53,0,0,1-4.59,1.1,7.75,7.75,0,0,1-6.5-4.78,7.34,7.34,0,0,1-.54-2.73v-.5a4.65,4.65,0,0,1,.08-.86,9.87,9.87,0,0,1,.52-1.76,9.09,9.09,0,0,1,1.23-2A7.31,7.31,0,0,1,21,16.06a7.14,7.14,0,0,1,3-.4,7.61,7.61,0,0,1,4.36,1.75,7.64,7.64,0,0,1,1.5,10.07Zm1.34-10.34a1.79,1.79,0,1,1,2-1.78A1.78,1.78,0,0,1,31.22,17.14Z"/><path class="cls-1" d="M34.61,23.19v0h-.32A1.72,1.72,0,0,0,34.61,23.19Z"/></g></g></svg>