<svg xmlns="http://www.w3.org/2000/svg" viewBox="0 0 1010.92 573.43"><defs><style>.cls-1{fill:#c56767;}</style></defs><g id="Warstwa_2" data-name="Warstwa 2"><g id="portfolio"><path class="cls-1" d="M826.41,178.22A89.71,89.71,0,0,0,737,94H522a111.89,111.89,0,0,1,7.34,25H737a64.68,64.68,0,0,1,64.61,64.61V411.31A64.68,64.68,0,0,1,737,475.92H429.57c-1,0-1.93,0-2.89-.06A64.69,64.69,0,0,1,365,411.31V238.1a113.7,113.7,0,0,1-25-18V411.31a89.71,89.71,0,0,0,86.7,89.56c1,0,1.94.05,2.91.05H737a89,89,0,0,0,45.2-12.26,90.31,90.31,0,0,0,27.48-25,89,89,0,0,0,16.62-44.93c.21-2.44.31-4.92.31-7.42V183.57C826.58,181.77,826.53,180,826.41,178.22Z"/><polygon class="cls-1" points="1010.92 280.01 1010.92 488.66 777.3 488.66 777.3 463.66 985.92 463.66 985.92 290.36 898.78 203.22 820.21 203.22 820.21 178.22 909.13 178.22 1010.92 280.01"/><polygon class="cls-1" points="962.19 302.3 962.19 341.36 947.62 341.36 947.62 308.33 896.83 257.54 851.04 257.54 851.04 242.97 902.86 242.97 962.19 302.3"/><path class="cls-1" d="M554.62,119a136.72,136.72,0,0,0-5.92-25C530.24,39.39,478.55,0,417.83,0,341.67,0,279.71,62,279.71,138.12A138.12,138.12,0,0,0,417.83,276.24c76.15,0,138.11-62,138.11-138.12A139.17,139.17,0,0,0,554.62,119ZM417.83,251.24A112.33,112.33,0,0,1,365,238.1,113.11,113.11,0,1,1,522,94a111.89,111.89,0,0,1,7.34,25A113.14,113.14,0,0,1,417.83,251.24Z"/><path class="cls-1" d="M594.85,475.92H569.46a60,60,0,1,1-117.4,0H429.57c-1,0-1.93,0-2.89-.06a85,85,0,1,0,168.17.06Z"/><path class="cls-1" d="M956.24,463.66H929.57a59.58,59.58,0,0,1,5.35,24.76v.24a60,60,0,0,1-120,0v-.24a59.58,59.58,0,0,1,5.35-24.76h-10.6a89,89,0,0,0,16.62-44.93,85.29,85.29,0,0,0-32.69,44.93,84.09,84.09,0,0,0-3.53,19.8c-.1,1.64-.15,3.29-.15,5v.24a85,85,0,0,0,170,0v-.24A84.72,84.72,0,0,0,956.24,463.66Z"/><path class="cls-1" d="M292.21,263.74v33.7H43.28a16.85,16.85,0,1,1,0-33.7Z"/><path class="cls-1" d="M303.7,333.14v33.7H111.44a16.85,16.85,0,0,1,0-33.7Z"/><path class="cls-1" d="M256.59,402.54v33.7H16.85a16.85,16.85,0,1,1,0-33.7Z"/><polygon class="cls-1" points="405.04 187.59 362.2 144.74 379.88 127.06 405.04 152.23 459.78 97.49 477.46 115.17 405.04 187.59"/><rect class="cls-1" x="851.04" y="242.97" width="16.15" height="98.39"/><rect class="cls-1" x="851.04" y="325.01" width="111.15" height="16.35"/></g></g></svg>