<svg xmlns="http://www.w3.org/2000/svg" viewBox="0 0 46.4 46.4"><defs><style>.cls-1{fill:#a15050;}</style></defs><g id="Warstwa_2" data-name="Warstwa 2"><g id="Warstwa_1-2" data-name="Warstwa 1"><path class="cls-1" d="M20.18,18l9.09,5.25c-3,1.77-6,3.49-9.09,5.26Z"/><path class="cls-1" d="M34.3,0H12.11A12.15,12.15,0,0,0,0,12.11V34.3A12.14,12.14,0,0,0,12.11,46.4H34.3A12.13,12.13,0,0,0,46.4,34.3V12.11A12.14,12.14,0,0,0,34.3,0Zm6.44,30.31a5.43,5.43,0,0,1-1.26,3.17,4.36,4.36,0,0,1-2.36,1.34,32.21,32.21,0,0,1-5.27.51,181.71,181.71,0,0,1-18.23-.11,23.3,23.3,0,0,1-3.32-.39,4.36,4.36,0,0,1-3.48-3.37,27,27,0,0,1-.58-4.75,53.83,53.83,0,0,1,.35-10.54A5.39,5.39,0,0,1,7.84,13a4.47,4.47,0,0,1,2.39-1.36,35.88,35.88,0,0,1,5.27-.5C18.25,11,21,11,23.85,11c3.86.07,7.8,0,11.75.44a10,10,0,0,1,1.95.36,4.24,4.24,0,0,1,3,3.19,24.8,24.8,0,0,1,.59,4.78A54.22,54.22,0,0,1,40.74,30.31Z"/></g></g></svg>